<svg xmlns="http://www.w3.org/2000/svg" viewBox="3.0999999046325684 11.600000381469727 165.9499969482422 134.7559814453125" data-asc="0.932" width="165.9499969482422" height="134.7559814453125">
  <defs/>
  <g fill="#5E81AC">
    <g transform="translate(0, 0)">
      <path d="M7.65 11.60L26.35 11.60Q33.45 11.60 37.60 15.05Q41.75 18.50 41.75 23.90Q41.75 29.30 38.25 32.48Q34.75 35.65 26.35 35.65L19.75 35.65L19.75 45.25Q19.75 45.80 19.35 46.20Q18.95 46.60 18.40 46.60L7.65 46.60Q7.10 46.60 6.70 46.20Q6.30 45.80 6.30 45.25L6.30 12.95Q6.30 12.40 6.70 12Q7.10 11.60 7.65 11.60M19.80 20.90L19.80 26.40L26.15 26.40Q27.30 26.40 28.03 25.70Q28.75 25 28.75 23.75Q28.75 22.50 28.05 21.70Q27.35 20.90 26.15 20.90L19.80 20.90ZM79.60 21.85L70.55 21.85L70.55 36.35L79.60 36.35Q80.15 36.35 80.55 36.75Q80.95 37.15 80.95 37.70L80.95 45.25Q80.95 45.80 80.55 46.20Q80.15 46.60 79.60 46.60L47.90 46.60Q47.35 46.60 46.95 46.20Q46.55 45.80 46.55 45.25L46.55 37.70Q46.55 37.15 46.95 36.75Q47.35 36.35 47.90 36.35L57.05 36.35L57.05 21.85L47.90 21.85Q47.35 21.85 46.95 21.45Q46.55 21.05 46.55 20.50L46.55 12.95Q46.55 12.40 46.95 12Q47.35 11.60 47.90 11.60L79.60 11.60Q80.15 11.60 80.55 12Q80.95 12.40 80.95 12.95L80.95 20.50Q80.95 21.05 80.55 21.45Q80.15 21.85 79.60 21.85ZM126.10 45.05Q126.20 45.25 126.20 45.60Q126.20 45.95 125.88 46.27Q125.55 46.60 125.10 46.60L113.75 46.60Q112.25 46.60 111.65 45.35L107.25 35.45L103.05 35.45L103.05 45.25Q103.05 45.80 102.65 46.20Q102.25 46.60 101.70 46.60L90.90 46.60Q90.35 46.60 89.95 46.20Q89.55 45.80 89.55 45.25L89.55 12.95Q89.55 12.40 89.95 12Q90.35 11.60 90.90 11.60L110.35 11.60Q117.20 11.60 121.20 14.85Q125.20 18.10 125.20 23.70Q125.20 30.50 119.95 33.55L126.10 45.05M103.05 20.90L103.05 26.20L109.30 26.20Q110.40 26.20 111 25.48Q111.60 24.75 111.60 23.65Q111.60 22.55 111.03 21.73Q110.45 20.90 109.30 20.90L103.05 20.90ZM139.30 46.60L129.85 46.60Q129.40 46.60 129.07 46.27Q128.75 45.95 128.75 45.65Q128.75 45.35 128.80 45.20L139.70 13.25Q140.15 11.60 141.95 11.60L155.85 11.60Q157.65 11.60 158.10 13.25L169 45.20Q169.05 45.35 169.05 45.65Q169.05 45.95 168.72 46.27Q168.40 46.60 167.95 46.60L158.50 46.60Q156.90 46.60 156.25 44.90L155 41.40L142.80 41.40L141.55 44.90Q140.90 46.60 139.30 46.60M152.45 31.65L148.90 21.25L145.35 31.65L152.45 31.65Z"/>
    </g>
    <g transform="translate(0, 49.628)">
      <path d="M27.60 11.60L37.90 11.60Q38.45 11.60 38.85 12Q39.25 12.40 39.25 12.95L39.25 45.25Q39.25 45.80 38.85 46.20Q38.45 46.60 37.90 46.60L27.60 46.60Q27.05 46.60 26.65 46.20Q26.25 45.80 26.25 45.25L26.25 34.60L16.25 34.60L16.25 45.25Q16.25 45.80 15.85 46.20Q15.45 46.60 14.90 46.60L4.60 46.60Q4.05 46.60 3.65 46.23Q3.25 45.85 3.25 45.25L3.25 12.95Q3.25 12.40 3.65 12Q4.05 11.60 4.60 11.60L14.90 11.60Q15.45 11.60 15.85 12Q16.25 12.40 16.25 12.95L16.25 23.20L26.25 23.20L26.25 12.95Q26.25 12.40 26.65 12Q27.05 11.60 27.60 11.60ZM72.45 11.60L81.60 11.60Q82.15 11.60 82.55 12Q82.95 12.40 82.95 12.95L82.95 45.25Q82.95 45.80 82.55 46.20Q82.15 46.60 81.60 46.60L72.55 46.60Q72 46.60 71.60 46.20Q71.20 45.80 71.20 45.25L71.20 29.75L67.55 36.95Q67.25 37.55 66.65 37.88Q66.05 38.20 65.45 38.20L62.05 38.20Q61.20 38.20 60.65 37.75Q60.10 37.30 59.95 36.95L56.30 29.75L56.30 45.25Q56.30 45.80 55.90 46.20Q55.50 46.60 54.95 46.60L45.90 46.60Q45.35 46.60 44.95 46.20Q44.55 45.80 44.55 45.25L44.55 12.95Q44.55 12.40 44.95 12Q45.35 11.60 45.90 11.60L55.05 11.60Q56.45 11.60 57.20 12.95L63.75 24.95L70.30 12.95Q71.05 11.60 72.45 11.60ZM102.50 36.85L122.45 36.85Q123 36.85 123.40 37.25Q123.80 37.65 123.80 38.20L123.80 45.25Q123.80 45.80 123.40 46.20Q123 46.60 122.45 46.60L90.85 46.60Q90.30 46.60 89.90 46.20Q89.50 45.80 89.50 45.25L89.50 12.95Q89.50 12.40 89.90 12Q90.30 11.60 90.85 11.60L121.95 11.60Q122.50 11.60 122.90 12Q123.30 12.40 123.30 12.95L123.30 20Q123.30 20.55 122.90 20.95Q122.50 21.35 121.95 21.35L102.50 21.35L102.50 24.50L119.20 24.50Q119.75 24.50 120.15 24.90Q120.55 25.30 120.55 25.85L120.55 32.35Q120.55 32.90 120.15 33.30Q119.75 33.70 119.20 33.70L102.50 33.70L102.50 36.85ZM132.65 11.60L148.60 11.60Q154.10 11.60 158.15 13.05Q162.20 14.50 164.70 17.95Q167.20 21.40 167.20 26.55L167.20 31.65Q167.20 39.65 161.80 43.30Q156.85 46.60 148.60 46.60L132.65 46.60Q132.10 46.60 131.70 46.20Q131.30 45.80 131.30 45.25L131.30 12.95Q131.30 12.40 131.70 12Q132.10 11.60 132.65 11.60M144.30 21.35L144.30 36.85L148.85 36.85Q151.20 36.85 152.57 35.73Q153.95 34.60 153.95 32.55L153.95 25.65Q153.95 23.60 152.57 22.48Q151.20 21.35 148.85 21.35L144.30 21.35Z"/>
    </g>
    <g transform="translate(0, 99.256)">
      <path d="M24 24.30Q32.20 25.25 35.68 27.82Q39.15 30.40 39.15 35.55Q39.15 40.70 34.10 43.90Q29.05 47.10 20.70 47.10Q12.35 47.10 7.73 44.02Q3.10 40.95 3.10 36.45Q3.10 35.35 4.25 35.35L14.50 35.35Q15.55 35.35 16.20 36Q17.60 37.35 21.05 37.35Q25.80 37.35 25.80 35.90Q25.80 35 24.30 34.48Q22.80 33.95 18.35 33.45Q4.20 31.75 4.20 22.60Q4.20 17.45 8.75 14.27Q13.30 11.10 20.93 11.10Q28.55 11.10 33.25 14.42Q37.95 17.75 37.95 21.45Q37.95 21.95 37.63 22.25Q37.30 22.55 36.75 22.55L26 22.55Q25.10 22.55 24.45 21.95Q23.25 20.85 20.85 20.85Q17.50 20.85 17.50 22.25Q17.50 23 18.80 23.43Q20.10 23.85 24 24.30ZM70.10 11.60L80.40 11.60Q80.95 11.60 81.35 12Q81.75 12.40 81.75 12.95L81.75 45.25Q81.75 45.80 81.35 46.20Q80.95 46.60 80.40 46.60L70.10 46.60Q69.55 46.60 69.15 46.20Q68.75 45.80 68.75 45.25L68.75 34.60L58.75 34.60L58.75 45.25Q58.75 45.80 58.35 46.20Q57.95 46.60 57.40 46.60L47.10 46.60Q46.55 46.60 46.15 46.23Q45.75 45.85 45.75 45.25L45.75 12.95Q45.75 12.40 46.15 12Q46.55 11.60 47.10 11.60L57.40 11.60Q57.95 11.60 58.35 12Q58.75 12.40 58.75 12.95L58.75 23.20L68.75 23.20L68.75 12.95Q68.75 12.40 69.15 12Q69.55 11.60 70.10 11.60ZM96.80 46.60L87.35 46.60Q86.90 46.60 86.58 46.27Q86.25 45.95 86.25 45.65Q86.25 45.35 86.30 45.20L97.20 13.25Q97.65 11.60 99.45 11.60L113.35 11.60Q115.15 11.60 115.60 13.25L126.50 45.20Q126.55 45.35 126.55 45.65Q126.55 45.95 126.22 46.27Q125.90 46.60 125.45 46.60L116 46.60Q114.40 46.60 113.75 44.90L112.50 41.40L100.30 41.40L99.05 44.90Q98.40 46.60 96.80 46.60M109.95 31.65L106.40 21.25L102.85 31.65L109.95 31.65ZM155.10 11.60L165.40 11.60Q165.95 11.60 166.35 12Q166.75 12.40 166.75 12.95L166.75 45.25Q166.75 45.80 166.35 46.20Q165.95 46.60 165.40 46.60L155.10 46.60Q154.55 46.60 154.15 46.20Q153.75 45.80 153.75 45.25L153.75 34.60L143.75 34.60L143.75 45.25Q143.75 45.80 143.35 46.20Q142.95 46.60 142.40 46.60L132.10 46.60Q131.55 46.60 131.15 46.23Q130.75 45.85 130.75 45.25L130.75 12.95Q130.75 12.40 131.15 12Q131.55 11.60 132.10 11.60L142.40 11.60Q142.95 11.60 143.35 12Q143.75 12.40 143.75 12.95L143.75 23.20L153.75 23.20L153.75 12.95Q153.75 12.40 154.15 12Q154.55 11.60 155.10 11.60Z"/>
    </g>
  </g>
</svg>

